<svg width="90" height="50" viewBox="0 0 90 50" fill="none" xmlns="http://www.w3.org/2000/svg">
<path d="M63.7801 36.5473C63.7801 33.9644 63.7801 31.4502 63.7801 28.7804C67.3498 28.7804 70.8564 28.7804 74.3631 28.7804C76.0203 28.7804 77.6785 28.7823 79.3358 28.7786C81.4101 28.774 81.7193 28.453 81.7247 26.322C81.7257 25.9607 81.7247 25.5985 81.7247 25.2629C81.3772 24.8421 80.9318 25.0122 80.5431 25.0113C76.7099 24.9985 72.8768 25.0132 69.0437 25.0013C64.2456 24.9876 60.3585 21.2047 59.8866 16.4231C59.2308 9.78765 64.3334 5.30424 69.9391 5.57405C73.2975 5.73593 76.6715 5.57222 80.0382 5.596C85.2771 5.63441 89.3864 9.64955 89.4825 14.9076C89.5584 19.0947 89.5584 23.2846 89.4843 27.4716C89.3947 32.5715 85.3109 36.6013 80.244 36.6388C75.1167 36.6772 69.9885 36.6479 64.8603 36.6415C64.509 36.6433 64.1569 36.583 63.7801 36.5473ZM81.7202 17.1887C81.7202 16.3674 81.744 15.75 81.7147 15.1345C81.6626 14.0369 81.0635 13.3821 79.9669 13.3729C76.4045 13.3427 72.8411 13.3309 69.2787 13.3848C68.0495 13.404 67.6626 14.2473 67.6846 15.4006C67.7065 16.5274 68.1721 17.1786 69.3263 17.1823C73.3963 17.1978 77.4672 17.1887 81.7202 17.1887Z" fill="#12111F"/>
<path d="M35.2224 22.9337C34.6242 22.4453 34.0535 21.9213 33.4234 21.4832C32.8435 21.0798 32.1676 20.8429 31.6508 21.571C31.167 22.2524 31.4643 22.728 32.0734 23.263C34.1733 25.1096 34.3535 25.9538 33.2834 28.2193C32.7539 27.8287 32.2472 27.4373 31.7222 27.0723C31.2722 26.7595 30.8314 26.819 30.4856 27.2388C30.1335 27.6659 30 28.104 30.3649 28.6427C31.7011 30.6119 31.2722 31.8192 28.9098 32.7374C28.5137 32.2353 28.832 31.2055 27.7866 31.1497C26.7933 31.0966 26.6424 31.8786 26.3763 32.5307C25.6135 34.402 24.0449 34.0261 22.352 33.942C22.6694 31.9655 21.6029 29.8829 23.4248 28.1205C24.5022 27.0778 25.651 26.4458 27.1455 26.5849C27.9759 26.6617 28.6582 26.5428 28.7058 25.576C28.7524 24.6093 28.0272 24.484 27.2443 24.3752C25.49 24.131 24.0221 24.8069 22.3657 25.9245C22.3657 24.4172 22.3657 23.1606 22.3657 21.9039C22.3657 20.6189 22.3657 19.3329 22.3657 18.0259C25.3455 18.5683 26.3059 18.1147 27.8644 15.5044C28.1589 15.0105 28.1506 14.5029 27.7912 14.0584C27.4391 13.623 26.9278 13.7172 26.4961 13.8727C25.9482 14.0703 25.5989 14.5221 25.3181 15.0352C25.0089 15.5986 24.7766 16.4345 23.873 16.0065C23.1248 15.6516 22.2112 15.3955 22.3447 14.1736C22.4618 13.1008 22.3301 12.0032 22.3749 10.9194C22.4435 9.23014 23.7267 7.87835 25.372 7.68994C26.8958 7.51616 28.5238 8.54693 28.8256 10.1694C29.0918 11.599 29.5536 12.402 31.1478 12.7066C32.3798 12.9425 33.395 13.9175 33.4124 15.4906C33.3237 15.551 33.2112 15.6882 33.0859 15.701C32.2883 15.7806 31.4002 15.8382 31.4533 16.9092C31.5027 17.9006 32.1548 18.1421 33.1627 18.1622C35.3029 18.2034 36.3702 20.7762 35.2224 22.9337Z" fill="#F59B1E"/>
<path d="M19.7873 25.6034C18.43 24.8671 17.0545 24.2114 15.4374 24.3522C14.6024 24.4245 13.8186 24.6339 13.8314 25.6135C13.8442 26.6022 14.6655 26.6909 15.4137 26.5793C17.5593 26.261 18.6925 27.6988 19.8815 29.0615C19.8705 29.6817 19.8541 30.3018 19.8504 30.9219C19.834 33.6465 19.8358 33.6465 17.1926 33.7343C16.5816 33.5267 16.3667 32.9614 16.1664 32.4584C15.9094 31.8109 15.7393 31.1633 14.8695 31.1551C13.8003 31.1459 13.9667 32.0779 13.7262 32.6871C11.4369 32.1026 10.804 30.5258 12.1394 28.7341C12.5701 28.1561 12.4485 27.7116 11.9756 27.2525C11.501 26.7915 11.018 26.732 10.5004 27.1509C10.1053 27.471 9.72478 27.8076 9.33333 28.1396C8.20013 26.443 8.44707 24.708 10.0138 23.5638C10.7473 23.0279 11.6775 22.5614 10.8863 21.5361C10.183 20.6243 9.44949 21.4227 8.70134 21.7209C8.09129 21.9642 7.95136 22.6785 7.35046 22.8678C6.20262 20.9654 6.99559 18.7676 9.01962 18.1466C9.36443 18.0405 9.7257 17.982 10.0824 17.9207C10.7162 17.8118 11.1488 17.5201 11.1287 16.8094C11.1077 16.0942 10.6165 15.8518 10.012 15.7485C9.77051 15.7073 9.52265 15.7 9.28211 15.6772C9.35894 13.836 10.0165 12.9708 11.7223 12.5547C12.8088 12.2894 13.5835 11.9465 13.6347 10.5773C13.6997 8.8569 15.1649 7.64687 16.8478 7.65236C18.559 7.65876 19.9648 8.82672 20.1193 10.5489C20.2391 11.8824 20.1504 13.2351 20.1669 14.5787C20.1797 15.6543 19.2413 15.7028 18.5855 16.0037C17.8612 16.3366 17.6014 15.754 17.3224 15.2317C17.1322 14.875 16.9118 14.511 16.6228 14.2376C16.095 13.7391 15.4402 13.4793 14.8356 14.0583C14.3024 14.5686 14.542 15.0772 14.8868 15.7055C15.9679 17.6747 17.3325 18.881 19.7343 18.1C19.9556 20.6005 19.8568 23.102 19.7873 25.6034Z" fill="#F59B1E"/>
<path d="M56.7815 36.4871C54.2581 36.4871 51.7887 36.4871 49.2021 36.4871C49.2021 29.73 49.2021 22.9509 49.2021 16.084C51.678 16.084 54.1859 16.084 56.7815 16.084C56.7815 22.864 56.7815 29.6458 56.7815 36.4871Z" fill="#12111F"/>
<path d="M48.0444 9.36225C48.0408 6.59829 50.1627 4.41878 52.8964 4.37945C55.675 4.33921 57.8893 6.5233 57.9433 9.35859C57.9936 12.0036 55.729 14.2353 52.9833 14.2453C50.2221 14.2563 48.0481 12.1061 48.0444 9.36225Z" fill="#12111F"/>
<path d="M17.9611 43.1712C17.4791 42.8373 17.3913 42.3462 17.3931 41.8056C17.3995 40.0066 17.3958 38.2076 17.3958 36.3125C20.104 36.3125 22.6658 36.3125 25.4554 36.3125C25.106 38.5688 26.1075 40.8727 24.8252 43.0395C22.5369 43.1026 20.2439 42.862 17.9611 43.1712Z" fill="#F59B1E"/>
<path d="M6.97006 5.74121C7.31121 5.93145 7.66699 6.05309 7.91851 6.28632C8.59258 6.91283 9.22457 7.58598 9.86846 8.2445C10.3148 8.70089 10.4995 9.1902 10.0084 9.7344C9.51359 10.2822 9.00872 10.1698 8.53313 9.71885C7.78681 9.01094 7.03865 8.30395 6.32983 7.56037C5.98045 7.19361 5.94844 6.68875 6.2091 6.26894C6.35178 6.03938 6.68653 5.92871 6.97006 5.74121Z" fill="#F59B1E"/>
<path d="M40.1171 20.637C40.6311 20.637 41.1451 20.6389 41.6591 20.6361C42.0945 20.6334 42.4942 20.6718 42.5619 21.2315C42.6195 21.7062 42.4137 22.1059 41.9948 22.2083C40.6375 22.5385 39.2537 22.5824 37.9001 22.1955C37.4885 22.0776 37.291 21.6623 37.3596 21.1959C37.4391 20.648 37.8315 20.6142 38.2751 20.627C38.8888 20.6434 39.5034 20.6316 40.1171 20.6316C40.1171 20.6334 40.1171 20.6352 40.1171 20.637Z" fill="#F59B1E"/>
<path d="M2.88354 20.0772C3.4762 20.3699 4.87098 19.4333 4.89751 20.99C4.92312 22.4424 3.66736 22.1973 2.71067 22.2128C2.24514 22.2201 1.7796 22.2028 1.31407 22.2156C0.597012 22.2357 0.0500748 21.9339 0.0034297 21.2141C-0.0532761 20.3461 0.601584 20.1047 1.34516 20.08C1.80978 20.0644 2.27623 20.0772 2.88354 20.0772Z" fill="#F59B1E"/>
<path d="M19.6072 45.5274C20.3151 45.5274 20.8785 45.4807 21.4309 45.5393C22.1526 45.6161 23.3379 45.135 23.2894 46.3981C23.2574 47.2194 23.0086 48.3307 21.6075 48.2328C20.509 48.156 19.4755 48.1468 19.5267 46.6423C19.5368 46.3386 19.5697 46.0359 19.6072 45.5274Z" fill="#F59B1E"/>
<path d="M35.5591 6.01562C36.1262 6.08056 36.4691 6.23605 36.6018 6.59457C36.7472 6.98694 36.7344 7.3912 36.3859 7.72869C35.6487 8.443 34.9509 9.19938 34.1899 9.88808C33.7171 10.3161 33.15 10.3646 32.6955 9.83046C32.2903 9.35395 32.4101 8.85915 32.8327 8.45855C33.7491 7.58967 34.5165 6.53787 35.5591 6.01562Z" fill="#F59B1E"/>
<path d="M22.3529 2.59211C22.3529 3.1546 22.3758 3.71708 22.3465 4.27774C22.3182 4.81278 22.0054 5.12009 21.4612 5.14296C20.8411 5.16948 20.478 4.84845 20.4606 4.24024C20.4295 3.1674 20.4506 2.09365 20.4405 1.0199C20.435 0.399792 20.7615 0.022058 21.345 0.00102197C22.0081 -0.0227579 22.3758 0.36961 22.374 1.0574C22.3731 1.56866 22.374 2.07993 22.374 2.5912C22.3667 2.59211 22.3603 2.59211 22.3529 2.59211Z" fill="#F59B1E"/>
<path d="M19.7875 25.6032C19.857 23.1018 19.9558 20.6003 19.7354 18.1007C19.9466 17.9333 20.1396 17.9845 20.1405 18.2425C20.1469 20.69 20.1341 23.1375 20.1204 25.585C20.1204 25.6206 20.0491 25.6892 20.0189 25.6846C19.9393 25.6755 19.8643 25.6325 19.7875 25.6032Z" fill="#D2A26A"/>
<path d="M17.1934 33.7352C19.8366 33.6474 19.8348 33.6474 19.8512 30.9228C19.8549 30.3027 19.8713 29.6826 19.8823 29.0625C20.2399 30.1298 20.293 32.1182 19.9948 33.974C19.0665 33.9465 18.108 34.2886 17.1934 33.7352Z" fill="#D2A26A"/>
<path d="M17.9609 43.1714C20.2438 42.8622 22.5367 43.1037 24.8242 43.0396C22.5477 43.6854 20.2548 43.4457 17.9609 43.1714Z" fill="#D2A26A"/>
<path d="M54.4006 46.1516C54.4006 46.5577 54.3485 46.9272 54.2442 47.2619C54.14 47.5967 53.9827 47.883 53.7741 48.1198C53.5656 48.3567 53.3022 48.536 52.9839 48.6576L54.2223 49.9994H53.0836L52.1013 48.8278C52.0775 48.8278 52.0547 48.8287 52.0336 48.8296C52.0126 48.8305 51.9906 48.8314 51.9696 48.8314C51.5544 48.8314 51.1931 48.7683 50.8876 48.6412C50.5812 48.514 50.3279 48.332 50.1276 48.0942C49.9273 47.8574 49.7773 47.5738 49.6794 47.2437C49.5806 46.9135 49.5312 46.5467 49.5312 46.1434C49.5312 45.6074 49.6191 45.1391 49.7947 44.7395C49.9703 44.3398 50.2392 44.0288 50.6023 43.8066C50.9654 43.5843 51.4236 43.4736 51.976 43.4736C52.5174 43.4736 52.9665 43.5843 53.325 43.8047C53.6836 44.0251 53.9525 44.3361 54.1317 44.7376C54.311 45.1391 54.4006 45.6102 54.4006 46.1516ZM50.4276 46.1516C50.4276 46.5531 50.4824 46.8998 50.5913 47.1924C50.7001 47.486 50.8684 47.711 51.0952 47.8692C51.3221 48.0275 51.6129 48.1061 51.9696 48.1061C52.3254 48.1061 52.6171 48.0275 52.844 47.8692C53.0708 47.711 53.2363 47.486 53.3424 47.1924C53.4476 46.8998 53.5007 46.5522 53.5007 46.1516C53.5007 45.5443 53.3799 45.0669 53.1376 44.7202C52.8952 44.3736 52.5083 44.2007 51.9769 44.2007C51.6211 44.2007 51.3285 44.2794 51.0998 44.4376C50.8712 44.5959 50.7019 44.8199 50.5922 45.1108C50.4824 45.4007 50.4276 45.7483 50.4276 46.1516Z" fill="#F59B1E"/>
<path d="M59.6048 43.5566V46.9242C59.6048 47.2873 59.528 47.6129 59.3752 47.9001C59.2225 48.1873 58.9911 48.4141 58.6829 48.5815C58.3746 48.7489 57.9859 48.8321 57.5186 48.8321C56.8518 48.8321 56.3442 48.6574 55.9948 48.3071C55.6464 47.9568 55.4717 47.4913 55.4717 46.9096V43.5566H56.3296V46.8355C56.3296 47.27 56.432 47.5901 56.636 47.7968C56.8399 48.0035 57.1454 48.1068 57.5506 48.1068C57.8286 48.1068 58.0555 48.0574 58.232 47.9596C58.4085 47.8608 58.5402 47.7163 58.6253 47.5251C58.7103 47.334 58.7533 47.1035 58.7533 46.8328V43.5576H59.6048V43.5566Z" fill="#F59B1E"/>
<path d="M63.8804 48.7608H60.9326V43.5566H63.8804V44.2755H61.7869V45.6886H63.7487V46.4038H61.7869V48.0382H63.8804V48.7608Z" fill="#F59B1E"/>
<path d="M68.0065 47.3449C68.0065 47.6532 67.9315 47.9193 67.7806 48.1425C67.6297 48.3657 67.4138 48.5367 67.133 48.6556C66.8522 48.7745 66.5166 48.8339 66.127 48.8339C65.9367 48.8339 65.7556 48.823 65.5818 48.8019C65.409 48.7809 65.2453 48.7489 65.0925 48.7077C64.9398 48.6666 64.7989 48.6163 64.6709 48.5568V47.7519C64.8849 47.8443 65.1218 47.9285 65.3825 48.0025C65.6431 48.0775 65.9093 48.115 66.18 48.115C66.4004 48.115 66.5833 48.0858 66.7279 48.0282C66.8724 47.9696 66.9812 47.8873 67.0535 47.7794C67.1257 47.6715 67.1623 47.5452 67.1623 47.3998C67.1623 47.2452 67.1211 47.1154 67.0379 47.0102C66.9547 46.905 66.8294 46.8072 66.662 46.7166C66.4946 46.6261 66.2843 46.53 66.03 46.4285C65.859 46.3617 65.6962 46.2849 65.5425 46.1971C65.3879 46.1093 65.2508 46.006 65.1291 45.8871C65.0084 45.7682 64.9124 45.6273 64.841 45.4636C64.7697 45.2999 64.734 45.1087 64.734 44.8901C64.734 44.5956 64.8053 44.3441 64.9471 44.1338C65.0898 43.9234 65.2892 43.7633 65.5471 43.6518C65.805 43.5402 66.105 43.4844 66.4498 43.4844C66.7224 43.4844 66.9794 43.5136 67.2208 43.5713C67.4614 43.6298 67.6983 43.7094 67.9306 43.8118L67.6598 44.5023C67.444 44.4145 67.2364 44.3441 67.037 44.2901C66.8376 44.2371 66.6337 44.2106 66.4251 44.2106C66.2449 44.2106 66.0913 44.238 65.966 44.2929C65.8398 44.3478 65.7446 44.4246 65.6797 44.5243C65.6148 44.624 65.5818 44.7401 65.5818 44.8728C65.5818 45.0273 65.6193 45.1554 65.6943 45.2569C65.7693 45.3593 65.8855 45.4526 66.0428 45.5377C66.201 45.6227 66.4041 45.7179 66.6538 45.8221C66.941 45.941 67.1852 46.0654 67.3855 46.1962C67.5858 46.327 67.7394 46.4825 67.8464 46.6645C67.9534 46.8447 68.0065 47.0715 68.0065 47.3449Z" fill="#F59B1E"/>
<path d="M70.8152 48.7608H69.9573V44.2828H68.4336V43.5566H72.3353V44.2828H70.8152V48.7608Z" fill="#F59B1E"/>
<path d="M77.7498 46.1518C77.7498 46.5534 77.6995 46.9174 77.5989 47.2466C77.4983 47.575 77.3465 47.8585 77.1453 48.0954C76.9431 48.3332 76.6907 48.5152 76.387 48.6423C76.0834 48.7695 75.7276 48.8326 75.3188 48.8326C74.9036 48.8326 74.5432 48.7695 74.2368 48.6423C73.9304 48.5152 73.6771 48.3332 73.4768 48.0954C73.2765 47.8585 73.1265 47.575 73.0286 47.2448C72.9298 46.9146 72.8813 46.5479 72.8813 46.1445C72.8813 45.6086 72.9692 45.1403 73.1448 44.7406C73.3204 44.3409 73.5902 44.0299 73.9533 43.8077C74.3164 43.5854 74.7746 43.4748 75.327 43.4748C75.8685 43.4748 76.3175 43.5854 76.6761 43.8059C77.0346 44.0263 77.3035 44.3373 77.4827 44.7388C77.6602 45.1394 77.7498 45.6104 77.7498 46.1518ZM73.7768 46.1518C73.7768 46.5534 73.8316 46.9 73.9405 47.1927C74.0493 47.4863 74.2176 47.7113 74.4444 47.8695C74.6712 48.0277 74.9621 48.1064 75.3179 48.1064C75.6737 48.1064 75.9654 48.0277 76.1922 47.8695C76.4191 47.7113 76.5846 47.4863 76.6907 47.1927C76.7959 46.9 76.8489 46.5524 76.8489 46.1518C76.8489 45.5445 76.7282 45.0671 76.4858 44.7205C76.2435 44.3738 75.8566 44.201 75.3252 44.201C74.9694 44.201 74.6767 44.2796 74.4481 44.4379C74.2194 44.5961 74.0502 44.8202 73.9405 45.111C73.8316 45.4009 73.7768 45.7485 73.7768 46.1518ZM73.9011 43.0797C73.9158 42.9114 73.946 42.765 73.9935 42.6397C74.0411 42.5154 74.1033 42.4111 74.1801 42.326C74.2569 42.2419 74.3466 42.1779 74.4472 42.1358C74.5478 42.0928 74.6575 42.0718 74.7764 42.0718C74.8807 42.0718 74.9813 42.0919 75.0773 42.1321C75.1734 42.1724 75.2676 42.219 75.359 42.273C75.4505 42.326 75.5392 42.3736 75.6261 42.4138C75.713 42.4541 75.7962 42.4742 75.8767 42.4742C75.9691 42.4742 76.0477 42.4413 76.1136 42.3745C76.1785 42.3077 76.2279 42.2053 76.2617 42.0645H76.6998C76.6715 42.3919 76.5773 42.6416 76.4181 42.8135C76.259 42.9855 76.0605 43.0714 75.8237 43.0714C75.724 43.0714 75.6261 43.0513 75.5301 43.0111C75.434 42.9708 75.3407 42.9242 75.2502 42.872C75.1596 42.8199 75.0709 42.7733 74.9831 42.7312C74.8953 42.69 74.8103 42.669 74.727 42.669C74.6319 42.669 74.5523 42.7019 74.4865 42.7687C74.4215 42.8355 74.3731 42.9388 74.342 43.0788H73.9011V43.0797Z" fill="#F59B1E"/>
<path d="M81.815 48.7608H78.8672V43.5566H81.815V44.2755H79.7214V45.6886H81.6833V46.4038H79.7214V48.0382H81.815V48.7608Z" fill="#F59B1E"/>
<path d="M85.9411 47.3449C85.9411 47.6532 85.8661 47.9193 85.7151 48.1425C85.5642 48.3657 85.3484 48.5367 85.0676 48.6556C84.7868 48.7745 84.4511 48.8339 84.0615 48.8339C83.8713 48.8339 83.6902 48.823 83.5164 48.8019C83.3436 48.7809 83.1798 48.7489 83.0271 48.7077C82.8744 48.6666 82.7335 48.6163 82.6055 48.5568V47.7519C82.8195 47.8443 83.0564 47.9285 83.317 48.0025C83.5777 48.0775 83.8439 48.115 84.1146 48.115C84.335 48.115 84.5179 48.0858 84.6624 48.0282C84.8069 47.9696 84.9158 47.8873 84.988 47.7794C85.0603 47.6715 85.0969 47.5452 85.0969 47.3998C85.0969 47.2452 85.0557 47.1154 84.9725 47.0102C84.8892 46.905 84.7639 46.8072 84.5966 46.7166C84.4292 46.6261 84.2188 46.53 83.9646 46.4285C83.7935 46.3617 83.6307 46.2849 83.4771 46.1971C83.3225 46.1093 83.1853 46.006 83.0637 45.8871C82.943 45.7682 82.8469 45.6273 82.7756 45.4636C82.7042 45.2999 82.6686 45.1087 82.6686 44.8901C82.6686 44.5956 82.7399 44.3441 82.8817 44.1338C83.0244 43.9234 83.2237 43.7633 83.4817 43.6518C83.7396 43.5402 84.0396 43.4844 84.3844 43.4844C84.6569 43.4844 84.9139 43.5136 85.1554 43.5713C85.3959 43.6298 85.6328 43.7094 85.8651 43.8118L85.5944 44.5023C85.3786 44.4145 85.1709 44.3441 84.9716 44.2901C84.7722 44.2371 84.5682 44.2106 84.3597 44.2106C84.1795 44.2106 84.0259 44.238 83.9006 44.2929C83.7743 44.3478 83.6792 44.4246 83.6143 44.5243C83.5493 44.624 83.5164 44.7401 83.5164 44.8728C83.5164 45.0273 83.5539 45.1554 83.6289 45.2569C83.7039 45.3593 83.8201 45.4526 83.9774 45.5377C84.1356 45.6227 84.3387 45.7179 84.5883 45.8221C84.8755 45.941 85.1197 46.0654 85.32 46.1962C85.5203 46.327 85.674 46.4825 85.781 46.6645C85.8871 46.8447 85.9411 47.0715 85.9411 47.3449Z" fill="#F59B1E"/>
</svg>
