<svg width="90" height="51" viewBox="0 0 90 51" fill="none" xmlns="http://www.w3.org/2000/svg">
<path d="M63.7796 36.971C63.7796 34.3932 63.7796 31.8839 63.7796 29.2194C67.3493 29.2194 70.8559 29.2194 74.3626 29.2194C76.0198 29.2194 77.678 29.2212 79.3353 29.2176C81.4096 29.213 81.7188 28.8926 81.7243 26.7657C81.7252 26.4052 81.7243 26.0437 81.7243 25.7087C81.3767 25.2888 80.9313 25.4586 80.5426 25.4576C76.7095 25.4449 72.8763 25.4595 69.0432 25.4476C64.2452 25.4339 60.3581 21.6585 59.8861 16.8863C59.2303 10.2638 64.333 5.78912 69.9386 6.0584C73.297 6.21997 76.671 6.05657 80.0377 6.08031C85.2766 6.11864 89.3859 10.1259 89.482 15.3737C89.5579 19.5526 89.5579 23.7342 89.4838 27.9131C89.3942 33.003 85.3104 37.0249 80.2435 37.0623C75.1162 37.1007 69.988 37.0715 64.8598 37.0651C64.5086 37.0669 64.1564 37.0066 63.7796 36.971ZM81.7197 17.6503C81.7197 16.8306 81.7435 16.2144 81.7142 15.6001C81.6621 14.5047 81.063 13.8511 79.9664 13.842C76.404 13.8119 72.8407 13.8 69.2782 13.8539C68.049 13.873 67.6621 14.7147 67.6841 15.8657C67.706 16.9903 68.1716 17.6403 69.3258 17.6439C73.3958 17.6594 77.4667 17.6503 81.7197 17.6503Z" fill="#FCFCFC"/>
<path d="M35.2224 23.3843C34.6242 22.8969 34.0535 22.3738 33.4234 21.9366C32.8435 21.5341 32.1676 21.2976 31.6508 22.0242C31.167 22.7043 31.4643 23.179 32.0734 23.713C34.1733 25.5559 34.3535 26.3985 33.2834 28.6595C32.7539 28.2698 32.2472 27.8791 31.7222 27.5148C31.2722 27.2027 30.8314 27.262 30.4856 27.681C30.1335 28.1073 30 28.5445 30.3649 29.0822C31.7011 31.0475 31.2722 32.2524 28.9098 33.1689C28.5137 32.6677 28.832 31.6399 27.7866 31.5842C26.7933 31.5313 26.6424 32.3117 26.3763 32.9626C25.6135 34.8302 24.0449 34.455 22.352 34.371C22.6694 32.3984 21.6029 30.3199 23.4248 28.5609C24.5022 27.5203 25.651 26.8896 27.1455 27.0283C27.9759 27.105 28.6582 26.9863 28.7058 26.0215C28.7524 25.0566 28.0272 24.9316 27.2443 24.8229C25.49 24.5792 24.0221 25.2538 22.3657 26.3693C22.3657 24.8649 22.3657 23.6107 22.3657 22.3565C22.3657 21.074 22.3657 19.7906 22.3657 18.4861C25.3455 19.0274 26.3059 18.5747 27.8644 15.9695C28.1589 15.4766 28.1506 14.97 27.7912 14.5263C27.4391 14.0918 26.9278 14.1859 26.4961 14.341C25.9482 14.5382 25.5989 14.9891 25.3181 15.5012C25.0089 16.0635 24.7766 16.8978 23.873 16.4706C23.1248 16.1165 22.2112 15.8609 22.3447 14.6414C22.4618 13.5706 22.3301 12.4752 22.3749 11.3935C22.4435 9.70756 23.7267 8.35841 25.372 8.17037C26.8958 7.99693 28.5238 9.02568 28.8256 10.645C29.0918 12.0718 29.5536 12.8732 31.1478 13.1772C32.3798 13.4127 33.395 14.3858 33.4124 15.9558C33.3237 16.0161 33.2112 16.153 33.0859 16.1658C32.2883 16.2452 31.4002 16.3027 31.4533 17.3716C31.5027 18.3611 32.1548 18.6021 33.1627 18.6222C35.3029 18.6632 36.3702 21.231 35.2224 23.3843Z" fill="#F59B1E"/>
<path d="M19.7873 26.0487C18.43 25.3139 17.0545 24.6594 15.4374 24.8C14.6024 24.8721 13.8186 25.0812 13.8314 26.0588C13.8442 27.0455 14.6655 27.1341 15.4137 27.0227C17.5593 26.7051 18.6925 28.14 19.8815 29.5001C19.8705 30.119 19.8541 30.7379 19.8504 31.3568C19.834 34.0761 19.8358 34.0761 17.1926 34.1637C16.5816 33.9565 16.3667 33.3924 16.1664 32.8903C15.9094 32.2441 15.7393 31.5978 14.8695 31.5896C13.8003 31.5804 13.9667 32.5106 13.7262 33.1185C11.4369 32.5352 10.804 30.9615 12.1394 29.1733C12.5701 28.5964 12.4485 28.1528 11.9756 27.6946C11.501 27.2345 11.018 27.1752 10.5004 27.5932C10.1053 27.9127 9.72478 28.2486 9.33333 28.58C8.20013 26.8867 8.44707 25.1551 10.0138 24.0132C10.7473 23.4782 11.6775 23.0127 10.8863 21.9894C10.183 21.0794 9.44949 21.8762 8.70134 22.1738C8.09129 22.4166 7.95136 23.1295 7.35046 23.3185C6.20262 21.4198 6.99559 19.2263 9.01962 18.6065C9.36443 18.5006 9.7257 18.4422 10.0824 18.3811C10.7162 18.2724 11.1488 17.9812 11.1287 17.272C11.1077 16.5582 10.6165 16.3163 10.012 16.2131C9.77051 16.172 9.52265 16.1647 9.28211 16.1419C9.35894 14.3044 10.0165 13.4409 11.7223 13.0255C12.8088 12.7608 13.5835 12.4185 13.6347 11.052C13.6997 9.33502 15.1649 8.12735 16.8478 8.13283C18.559 8.13922 19.9648 9.30489 20.1193 11.0237C20.2391 12.3546 20.1504 13.7047 20.1669 15.0456C20.1797 16.1191 19.2413 16.1675 18.5855 16.4678C17.8612 16.8001 17.6014 16.2186 17.3224 15.6974C17.1322 15.3414 16.9118 14.9781 16.6228 14.7051C16.095 14.2076 15.4402 13.9484 14.8356 14.5262C14.3024 15.0356 14.542 15.5431 14.8868 16.1702C15.9679 18.1355 17.3325 19.3395 19.7343 18.56C19.9556 21.0556 19.8568 23.5522 19.7873 26.0487Z" fill="#F59B1E"/>
<path d="M56.7815 36.911C54.2581 36.911 51.7887 36.911 49.2021 36.911C49.2021 30.1671 49.2021 23.4013 49.2021 16.5479C51.678 16.5479 54.1859 16.5479 56.7815 16.5479C56.7815 23.3146 56.7815 30.0831 56.7815 36.911Z" fill="#FCFCFC"/>
<path d="M48.044 9.83882C48.0403 7.08028 50.1622 4.90503 52.896 4.86578C55.6745 4.82562 57.8888 7.00543 57.9428 9.83517C57.9931 12.475 55.7285 14.7023 52.9828 14.7124C50.2216 14.7233 48.0476 12.5773 48.044 9.83882Z" fill="#FCFCFC"/>
<path d="M17.9606 43.5825C17.4786 43.2494 17.3908 42.7592 17.3926 42.2197C17.399 40.4242 17.3953 38.6287 17.3953 36.7373C20.1035 36.7373 22.6653 36.7373 25.4549 36.7373C25.1055 38.9892 26.107 41.2886 24.8247 43.4511C22.5364 43.5141 20.2434 43.274 17.9606 43.5825Z" fill="#F59B1E"/>
<path d="M6.97006 6.22461C7.31121 6.41448 7.66699 6.53588 7.91851 6.76865C8.59258 7.39393 9.22457 8.06577 9.86846 8.723C10.3148 9.17849 10.4995 9.66685 10.0084 10.21C9.51359 10.7568 9.00872 10.6445 8.53313 10.1945C7.78681 9.48794 7.03865 8.78233 6.32983 8.04021C5.98045 7.67417 5.94844 7.17029 6.2091 6.75131C6.35178 6.52219 6.68653 6.41174 6.97006 6.22461Z" fill="#F59B1E"/>
<path d="M40.1176 21.0921C40.6316 21.0921 41.1456 21.0939 41.6596 21.0912C42.095 21.0885 42.4947 21.1268 42.5624 21.6854C42.62 22.1592 42.4142 22.5581 41.9953 22.6603C40.638 22.9899 39.2542 23.0337 37.9006 22.6475C37.489 22.5298 37.2915 22.1154 37.3601 21.6498C37.4396 21.1031 37.832 21.0693 38.2756 21.0821C38.8893 21.0985 39.5039 21.0866 40.1176 21.0866C40.1176 21.0884 40.1176 21.0903 40.1176 21.0921Z" fill="#F59B1E"/>
<path d="M2.88354 20.5332C3.4762 20.8253 4.87098 19.8906 4.89751 21.4442C4.92312 22.8938 3.66736 22.6492 2.71067 22.6647C2.24514 22.672 1.7796 22.6546 1.31407 22.6674C0.597012 22.6875 0.0500748 22.3863 0.0034297 21.6679C-0.0532761 20.8016 0.601584 20.5606 1.34516 20.536C1.80978 20.5205 2.27623 20.5332 2.88354 20.5332Z" fill="#F59B1E"/>
<path d="M19.6067 45.9336C20.3146 45.9336 20.878 45.887 21.4305 45.9455C22.1521 46.0221 23.3374 45.542 23.2889 46.8026C23.2569 47.6223 23.0082 48.7314 21.607 48.6337C20.5085 48.557 19.475 48.5479 19.5262 47.0463C19.5363 46.7433 19.5692 46.4411 19.6067 45.9336Z" fill="#F59B1E"/>
<path d="M35.5591 6.49902C36.1262 6.56383 36.4691 6.71901 36.6018 7.07684C36.7472 7.46844 36.7344 7.87191 36.3859 8.20874C35.6487 8.92165 34.9509 9.67655 34.1899 10.3639C33.7171 10.7911 33.15 10.8395 32.6955 10.3064C32.2903 9.83082 32.4101 9.33698 32.8327 8.93717C33.7491 8.06999 34.5165 7.02024 35.5591 6.49902Z" fill="#F59B1E"/>
<path d="M22.3529 3.08216C22.3529 3.64354 22.3758 4.20492 22.3465 4.76448C22.3182 5.29848 22.0054 5.60519 21.4612 5.62801C20.8411 5.65448 20.478 5.33408 20.4606 4.72706C20.4295 3.65632 20.4506 2.58467 20.4405 1.51302C20.435 0.894127 20.7615 0.517132 21.345 0.496137C22.0081 0.472404 22.3758 0.864004 22.374 1.55044C22.3731 2.06071 22.374 2.57098 22.374 3.08124C22.3667 3.08216 22.3603 3.08216 22.3529 3.08216Z" fill="#F59B1E"/>
<path d="M19.7875 26.0483C19.857 23.5518 19.9558 21.0552 19.7354 18.5605C19.9466 18.3934 20.1396 18.4445 20.1405 18.702C20.1469 21.1447 20.1341 23.5874 20.1204 26.0301C20.1204 26.0657 20.0491 26.1341 20.0189 26.1296C19.9393 26.1204 19.8643 26.0775 19.7875 26.0483Z" fill="#D2A26A"/>
<path d="M17.1934 34.1646C19.8366 34.0769 19.8348 34.0769 19.8512 31.3577C19.8549 30.7388 19.8713 30.1199 19.8823 29.501C20.2399 30.5662 20.293 32.5507 19.9948 34.4028C19.0665 34.3754 18.108 34.7168 17.1934 34.1646Z" fill="#D2A26A"/>
<path d="M17.9609 43.5825C20.2438 43.2733 22.5367 43.5148 24.8242 43.4508C22.5477 44.0965 20.2548 43.8569 17.9609 43.5825Z" fill="#D2A26A"/>
<path d="M54.4006 46.5565C54.4006 46.9618 54.3485 47.3306 54.2442 47.6647C54.14 47.9988 53.9827 48.2845 53.7741 48.5209C53.5656 48.7573 53.3022 48.9362 52.9839 49.0577L54.2223 50.3968H53.0836L52.1013 49.2274C52.0775 49.2274 52.0547 49.2283 52.0336 49.2293C52.0126 49.2302 51.9906 49.2311 51.9696 49.2311C51.5544 49.2311 51.1931 49.1681 50.8876 49.0412C50.5812 48.9143 50.3279 48.7327 50.1276 48.4954C49.9273 48.2589 49.7773 47.976 49.6794 47.6464C49.5806 47.3169 49.5312 46.9509 49.5312 46.5483C49.5312 46.0134 49.6191 45.546 49.7947 45.1471C49.9703 44.7482 50.2392 44.4379 50.6023 44.2161C50.9654 43.9942 51.4236 43.8838 51.976 43.8838C52.5174 43.8838 52.9665 43.9942 53.325 44.2142C53.6836 44.4342 53.9525 44.7446 54.1317 45.1453C54.311 45.546 54.4006 46.0161 54.4006 46.5565ZM50.4276 46.5565C50.4276 46.9573 50.4824 47.3032 50.5913 47.5953C50.7001 47.8883 50.8684 48.1129 51.0952 48.2708C51.3221 48.4287 51.6129 48.5072 51.9696 48.5072C52.3254 48.5072 52.6171 48.4287 52.844 48.2708C53.0708 48.1129 53.2363 47.8883 53.3424 47.5953C53.4476 47.3032 53.5007 46.9563 53.5007 46.5565C53.5007 45.9504 53.3799 45.4739 53.1376 45.128C52.8952 44.782 52.5083 44.6095 51.9769 44.6095C51.6211 44.6095 51.3285 44.688 51.0998 44.8459C50.8712 45.0038 50.7019 45.2275 50.5922 45.5177C50.4824 45.8071 50.4276 46.154 50.4276 46.5565Z" fill="#F59B1E"/>
<path d="M59.6048 43.9668V47.3278C59.6048 47.6902 59.528 48.0152 59.3752 48.3018C59.2225 48.5884 58.9911 48.8148 58.6829 48.9818C58.3746 49.1489 57.9859 49.2319 57.5186 49.2319C56.8518 49.2319 56.3442 49.0576 55.9948 48.708C55.6464 48.3584 55.4717 47.8937 55.4717 47.3132V43.9668H56.3296V47.2393C56.3296 47.6728 56.432 47.9923 56.636 48.1986C56.8399 48.4049 57.1454 48.5081 57.5506 48.5081C57.8286 48.5081 58.0555 48.4588 58.232 48.3611C58.4085 48.2625 58.5402 48.1183 58.6253 47.9275C58.7103 47.7367 58.7533 47.5067 58.7533 47.2365V43.9677H59.6048V43.9668Z" fill="#F59B1E"/>
<path d="M63.8804 49.1607H60.9326V43.9668H63.8804V44.6843H61.7869V46.0946H63.7487V46.8084H61.7869V48.4396H63.8804V49.1607Z" fill="#F59B1E"/>
<path d="M68.0065 47.7475C68.0065 48.0552 67.9315 48.3208 67.7806 48.5435C67.6297 48.7663 67.4138 48.937 67.133 49.0556C66.8522 49.1743 66.5166 49.2336 66.127 49.2336C65.9367 49.2336 65.7556 49.2227 65.5818 49.2017C65.409 49.1807 65.2453 49.1487 65.0925 49.1076C64.9398 49.0666 64.7989 49.0164 64.6709 48.957V48.1538C64.8849 48.2459 65.1218 48.3299 65.3825 48.4039C65.6431 48.4787 65.9093 48.5161 66.18 48.5161C66.4004 48.5161 66.5833 48.4869 66.7279 48.4294C66.8724 48.371 66.9812 48.2888 67.0535 48.1811C67.1257 48.0734 67.1623 47.9475 67.1623 47.8023C67.1623 47.648 67.1211 47.5184 67.0379 47.4135C66.9547 47.3085 66.8294 47.2108 66.662 47.1204C66.4946 47.0301 66.2843 46.9342 66.03 46.8329C65.859 46.7663 65.6962 46.6896 65.5425 46.602C65.3879 46.5143 65.2508 46.4112 65.1291 46.2925C65.0084 46.1738 64.9124 46.0333 64.841 45.8699C64.7697 45.7065 64.734 45.5157 64.734 45.2975C64.734 45.0036 64.8053 44.7526 64.9471 44.5426C65.0898 44.3327 65.2892 44.1729 65.5471 44.0616C65.805 43.9502 66.105 43.8945 66.4498 43.8945C66.7224 43.8945 66.9794 43.9237 67.2208 43.9813C67.4614 44.0397 67.6983 44.1191 67.9306 44.2213L67.6598 44.9105C67.444 44.8229 67.2364 44.7526 67.037 44.6987C66.8376 44.6458 66.6337 44.6193 66.4251 44.6193C66.2449 44.6193 66.0913 44.6467 65.966 44.7015C65.8398 44.7562 65.7446 44.8329 65.6797 44.9324C65.6148 45.0319 65.5818 45.1478 65.5818 45.2802C65.5818 45.4345 65.6193 45.5623 65.6943 45.6636C65.7693 45.7658 65.8855 45.8589 66.0428 45.9438C66.201 46.0287 66.4041 46.1236 66.6538 46.2277C66.941 46.3464 67.1852 46.4705 67.3855 46.601C67.5858 46.7316 67.7394 46.8868 67.8464 47.0684C67.9534 47.2482 68.0065 47.4746 68.0065 47.7475Z" fill="#F59B1E"/>
<path d="M70.8152 49.1607H69.9573V44.6916H68.4336V43.9668H72.3353V44.6916H70.8152V49.1607Z" fill="#F59B1E"/>
<path d="M77.7493 46.5569C77.7493 46.9577 77.699 47.321 77.5984 47.6496C77.4978 47.9773 77.346 48.2603 77.1448 48.4967C76.9426 48.734 76.6902 48.9157 76.3866 49.0425C76.0829 49.1694 75.7271 49.2324 75.3183 49.2324C74.9031 49.2324 74.5427 49.1694 74.2363 49.0425C73.9299 48.9157 73.6766 48.734 73.4763 48.4967C73.276 48.2603 73.126 47.9773 73.0281 47.6477C72.9293 47.3182 72.8809 46.9522 72.8809 46.5496C72.8809 46.0147 72.9687 45.5474 73.1443 45.1485C73.3199 44.7495 73.5897 44.4392 73.9528 44.2174C74.3159 43.9956 74.7741 43.8851 75.3265 43.8851C75.868 43.8851 76.317 43.9956 76.6756 44.2155C77.0341 44.4355 77.303 44.7459 77.4823 45.1466C77.6597 45.5464 77.7493 46.0165 77.7493 46.5569ZM73.7763 46.5569C73.7763 46.9577 73.8311 47.3036 73.94 47.5957C74.0488 47.8887 74.2171 48.1133 74.4439 48.2712C74.6708 48.4291 74.9616 48.5076 75.3174 48.5076C75.6732 48.5076 75.9649 48.4291 76.1917 48.2712C76.4186 48.1133 76.5841 47.8887 76.6902 47.5957C76.7954 47.3036 76.8484 46.9567 76.8484 46.5569C76.8484 45.9508 76.7277 45.4743 76.4853 45.1284C76.243 44.7824 75.8561 44.6099 75.3247 44.6099C74.9689 44.6099 74.6762 44.6884 74.4476 44.8463C74.2189 45.0042 74.0497 45.2279 73.94 45.5181C73.8311 45.8075 73.7763 46.1544 73.7763 46.5569ZM73.9007 43.4908C73.9153 43.3228 73.9455 43.1768 73.993 43.0517C74.0406 42.9276 74.1028 42.8235 74.1796 42.7386C74.2564 42.6546 74.3461 42.5907 74.4467 42.5487C74.5473 42.5058 74.657 42.4848 74.7759 42.4848C74.8802 42.4848 74.9808 42.5049 75.0768 42.5451C75.1729 42.5853 75.2671 42.6318 75.3585 42.6857C75.45 42.7386 75.5387 42.7861 75.6256 42.8262C75.7125 42.8664 75.7957 42.8865 75.8762 42.8865C75.9686 42.8865 76.0472 42.8536 76.1131 42.787C76.178 42.7203 76.2274 42.6181 76.2613 42.4775H76.6994C76.671 42.8043 76.5768 43.0535 76.4177 43.2251C76.2585 43.3967 76.06 43.4826 75.8232 43.4826C75.7235 43.4826 75.6256 43.4625 75.5296 43.4223C75.4335 43.3821 75.3402 43.3356 75.2497 43.2836C75.1592 43.2315 75.0704 43.185 74.9826 43.143C74.8948 43.1019 74.8098 43.0809 74.7265 43.0809C74.6314 43.0809 74.5519 43.1138 74.486 43.1804C74.4211 43.247 74.3726 43.3502 74.3415 43.4899H73.9007V43.4908Z" fill="#F59B1E"/>
<path d="M81.815 49.1607H78.8672V43.9668H81.815V44.6843H79.7214V46.0946H81.6833V46.8084H79.7214V48.4396H81.815V49.1607Z" fill="#F59B1E"/>
<path d="M85.9411 47.7475C85.9411 48.0552 85.8661 48.3208 85.7151 48.5435C85.5642 48.7663 85.3484 48.937 85.0676 49.0556C84.7868 49.1743 84.4511 49.2336 84.0615 49.2336C83.8713 49.2336 83.6902 49.2227 83.5164 49.2017C83.3436 49.1807 83.1798 49.1487 83.0271 49.1076C82.8744 49.0666 82.7335 49.0164 82.6055 48.957V48.1538C82.8195 48.2459 83.0564 48.3299 83.317 48.4039C83.5777 48.4787 83.8439 48.5161 84.1146 48.5161C84.335 48.5161 84.5179 48.4869 84.6624 48.4294C84.8069 48.371 84.9158 48.2888 84.988 48.1811C85.0603 48.0734 85.0969 47.9475 85.0969 47.8023C85.0969 47.648 85.0557 47.5184 84.9725 47.4135C84.8892 47.3085 84.7639 47.2108 84.5966 47.1204C84.4292 47.0301 84.2188 46.9342 83.9646 46.8329C83.7935 46.7663 83.6307 46.6896 83.4771 46.602C83.3225 46.5143 83.1853 46.4112 83.0637 46.2925C82.943 46.1738 82.8469 46.0333 82.7756 45.8699C82.7042 45.7065 82.6686 45.5157 82.6686 45.2975C82.6686 45.0036 82.7399 44.7526 82.8817 44.5426C83.0244 44.3327 83.2237 44.1729 83.4817 44.0616C83.7396 43.9502 84.0396 43.8945 84.3844 43.8945C84.6569 43.8945 84.9139 43.9237 85.1554 43.9813C85.3959 44.0397 85.6328 44.1191 85.8651 44.2213L85.5944 44.9105C85.3786 44.8229 85.1709 44.7526 84.9716 44.6987C84.7722 44.6458 84.5682 44.6193 84.3597 44.6193C84.1795 44.6193 84.0259 44.6467 83.9006 44.7015C83.7743 44.7562 83.6792 44.8329 83.6143 44.9324C83.5493 45.0319 83.5164 45.1478 83.5164 45.2802C83.5164 45.4345 83.5539 45.5623 83.6289 45.6636C83.7039 45.7658 83.8201 45.8589 83.9774 45.9438C84.1356 46.0287 84.3387 46.1236 84.5883 46.2277C84.8755 46.3464 85.1197 46.4705 85.32 46.601C85.5203 46.7316 85.674 46.8868 85.781 47.0684C85.8871 47.2482 85.9411 47.4746 85.9411 47.7475Z" fill="#F59B1E"/>
</svg>
